<svg xmlns="http://www.w3.org/2000/svg" width="35" height="30" viewBox="0 0 35 30">
    <g fill="#1AD6BB" fill-rule="evenodd">
        <path fill-rule="nonzero" d="M29.947 2.62a.634.634 0 0 1-.183.466c-.028.027-.063.04-.094.062l-1.751 1.75.449.45c.031.022.066.035.094.062a.634.634 0 0 1 .183.465.634.634 0 0 1-.183.465c-.028.028-.063.04-.094.062L7.722 27.05a.644.644 0 0 1-.34.313l-6.38 2.502a.661.661 0 0 1-.119.046l-.007.004c-.006.002-.011 0-.016.002a.61.61 0 0 1-.37.003c-.013-.004-.026-.001-.04-.006l-.013-.008a.612.612 0 0 1-.156-.092c-.026-.018-.052-.035-.074-.056-.021-.022-.038-.048-.056-.074a.62.62 0 0 1-.092-.156c-.002-.005-.006-.008-.008-.014-.005-.013-.002-.026-.006-.04a.641.641 0 0 1 .003-.37c.002-.004 0-.01.002-.014l.004-.009c.013-.04.025-.08.046-.117l2.502-6.38a.648.648 0 0 1 .314-.34L20.99 4.17a1.338 1.338 0 0 0-1.274-.939c-.397 0-.75.175-.995.449l-.002-.002-2.116 2.116.002.002-4.45 4.45a.636.636 0 0 1-.9-.898l6.542-6.541c.011-.012.025-.015.037-.025a2.59 2.59 0 0 1 1.883-.813c.944 0 1.757.51 2.21 1.265l1.637-1.636c.022-.031.035-.066.062-.094a.63.63 0 0 1 .465-.182.63.63 0 0 1 .466.182c.027.028.04.063.062.094l.449.449L26.819.296c.022-.031.035-.066.062-.094a.63.63 0 0 1 .465-.182.63.63 0 0 1 .466.182c.027.028.04.063.062.094l1.798 1.798c.031.021.066.034.094.062a.64.64 0 0 1 .18.464zM1.872 28.094l4.15-1.628L3.5 23.943l-1.628 4.151zM24.09 2.868L4.157 22.802l3.007 3.007L27.097 5.875 24.09 2.868zm3.255-1.302l-1.38 1.38L27.02 4l1.38-1.38-1.055-1.054z"/>
        <rect width="9" height="1" x="4" y="29" rx=".5"/>
        <rect width="20" height="1" x="15" y="29" rx=".5"/>
    </g>
</svg>
