<svg xmlns="http://www.w3.org/2000/svg" width="40" height="31" viewBox="0 0 40 31">
    <g fill="#1AD6BB" fill-rule="nonzero">
        <path d="M36.585 0h-15.61c-.387 0-.721.133-.975.353A1.465 1.465 0 0 0 19.024 0H3.414c-.847 0-1.463.616-1.463 1.463V28.78c0 .848.616 1.464 1.464 1.464h15.61c.387 0 .721-.133.975-.353.254.22.588.353.976.353h15.61c.847 0 1.463-.616 1.463-1.464V1.463C38.049.616 37.433 0 36.585 0zm-17.56 29.268H3.414c-.306 0-.488-.182-.488-.488V1.463c0-.305.182-.487.488-.487h15.61c.305 0 .487.182.487.487V28.78c0 .306-.182.488-.488.488zm18.048-.488c0 .306-.182.488-.488.488h-15.61c-.305 0-.487-.182-.487-.488V1.463c0-.305.182-.487.488-.487h15.61c.305 0 .487.182.487.487V28.78zM39.512 1.951a.488.488 0 0 0-.488.488v25.366a.488.488 0 0 0 .976 0V2.439a.488.488 0 0 0-.488-.488zM.488 28.293c.27 0 .488-.219.488-.488V2.439a.488.488 0 0 0-.976 0v25.366c0 .27.218.488.488.488z"/>
        <path d="M17.073 8.78H5.366a.488.488 0 0 0 0 .976h11.707a.488.488 0 1 0 0-.976zM17.073 12.683H5.366a.488.488 0 0 0 0 .976h11.707a.488.488 0 0 0 0-.976zM17.073 4.878H5.366a.488.488 0 1 0 0 .976h11.707a.488.488 0 1 0 0-.976zM17.073 16.585H5.366a.488.488 0 1 0 0 .976h11.707a.488.488 0 0 0 0-.976zM17.073 20.488H5.366a.488.488 0 0 0 0 .975h11.707a.488.488 0 1 0 0-.975zM17.073 24.39H5.366a.488.488 0 0 0 0 .976h11.707a.488.488 0 0 0 0-.976zM34.634 8.78H22.927a.488.488 0 1 0 0 .976h11.707a.488.488 0 1 0 0-.976zM34.634 12.683H22.927a.488.488 0 0 0 0 .976h11.707a.488.488 0 0 0 0-.976zM34.634 4.878H22.927a.488.488 0 1 0 0 .976h11.707a.488.488 0 1 0 0-.976zM34.634 16.585H22.927a.488.488 0 1 0 0 .976h11.707a.488.488 0 0 0 0-.976zM34.634 20.488H22.927a.488.488 0 0 0 0 .975h11.707a.488.488 0 1 0 0-.975zM34.634 24.39H22.927a.488.488 0 0 0 0 .976h11.707a.488.488 0 0 0 0-.976z"/>
    </g>
</svg>
